<svg xmlns="http://www.w3.org/2000/svg" width="428" height="412.142" viewBox="0 0 428 412.142">
  <g id="Illustration" transform="translate(0)">
    <g id="Group_191" data-name="Group 191" transform="translate(35.842 150.888)">
      <path id="Path_5" data-name="Path 5" d="M377.487,530.07a6.255,6.255,0,0,1-11.321-5.122l-24.173-49.662,11.571-7.017,20.877,52.751q.12.046.236.1t.231.106l.231.116a2.349,2.349,0,0,1,.226.129,6.263,6.263,0,0,1,2.127,8.6Z" transform="translate(-313.011 -402.523)" fill="#feb8b8"/>
      <path id="Path_8" data-name="Path 8" d="M339.944,481.039l17.172-4.4s-.561-1.267-1.472-3.367-2.184-5.03-3.617-8.353-3.021-7.039-4.573-10.711-3.064-7.3-4.333-10.444-2.717-5.03-4.167-6.083a5.729,5.729,0,0,0-4.211-1.119,8.137,8.137,0,0,0-3.258,1.24,8.865,8.865,0,0,0-1.308.993l-3.981,7.241Z" transform="translate(-306.348 -389.127)" fill="#ccc"/>
      <path id="Path_1-2" data-name="Path 1-2" d="M320.459,744.84l10.509-.041-3.389,27.46-7.12.036Z" transform="translate(-303.928 -519.167)" fill="#feb8b8"/>
      <path id="Path_2" data-name="Path 2" d="M317.317,797.524l22.947-.121v-.289a9,9,0,0,0-.173-1.754,8.775,8.775,0,0,0-1.323-3.187,9.012,9.012,0,0,0-2.482-2.47,8.78,8.78,0,0,0-3.194-1.309,9,9,0,0,0-1.755-.162h0l-14.021.069Z" transform="translate(-302.602 -537.487)" fill="#2f2e41"/>
      <path id="Path_3" data-name="Path 3" d="M378.657,744.616l10.479-.041L385.758,772l-7.1.036Z" transform="translate(-328.477 -519.072)" fill="#feb8b8"/>
      <path id="Path_4" data-name="Path 4" d="M375.525,797.227l22.886-.12v-.289a9.009,9.009,0,0,0-.173-1.751,8.77,8.77,0,0,0-1.319-3.183,8.983,8.983,0,0,0-2.476-2.467,8.746,8.746,0,0,0-3.186-1.306,8.968,8.968,0,0,0-1.751-.161h0l-13.982.068Z" transform="translate(-327.155 -537.367)" fill="#2f2e41"/>
      <path id="Path_6" data-name="Path 6" d="M344.072,550.526l17.621,65.761-6.45,63.037-14.281.394,3.109-56.919-17.817-28.406-3.864,85.712-12.957-.915-7.2-73.7a83.688,83.688,0,0,1-5.352-17.919,79.8,79.8,0,0,1-1.266-14.64,68.462,68.462,0,0,1,.76-9.871,36.13,36.13,0,0,1,.712-3.619l5.254-5.326Z" transform="translate(-293.446 -437.22)" fill="#2f2e41"/>
      <path id="Path_2616" data-name="Path 2616" d="M321.345,510.132c2.963,0,5.744-.095,8.268-.283a62.068,62.068,0,0,0,7.671-1.01,27.315,27.315,0,0,0,6.257-1.97,10.04,10.04,0,0,0,4.058-3.2l.12-.173L342.9,472.148,337.709,436.9a9.605,9.605,0,0,0-9.8-8.21l-16.267.5a9.117,9.117,0,0,0-8.833,9.392q0,.138.013.275l2.135,35.051-7.877,34.576.558.078c.224.03,1.089.144,2.443.3,1.77.2,3.577.378,5.371.533,2.538.219,5.023.391,7.383.512C315.826,510.056,318.695,510.13,321.345,510.132Z" transform="translate(-294.066 -385.828)" fill="#ccc"/>
      <path id="Path_9" data-name="Path 9" d="M328.173,391.2h.013a2.6,2.6,0,0,0,2.6-2.6v-14.5a19.383,19.383,0,0,0-1.529-7.564,19.694,19.694,0,0,0-10.35-10.4,19.392,19.392,0,0,0-27.037,17.792v14.525a2.6,2.6,0,0,0,.206,1.018,2.646,2.646,0,0,0,1.393,1.4,2.612,2.612,0,0,0,1.018.21l33.688.128Z" transform="translate(-291.868 -354.558)" fill="#2f2e41"/>
      <path id="Ellipse_1" data-name="Ellipse 1" d="M309.047,374.369a14.3,14.3,0,0,0,16.53,20.593,14.129,14.129,0,0,0,8.5-6.809,14.3,14.3,0,0,0-16.519-20.587,14.129,14.129,0,0,0-8.51,6.8Z" transform="translate(-298.373 -359.807)" fill="#feb8b8"/>
      <path id="Path_10" data-name="Path 10" d="M342.565,379.109a15.331,15.331,0,0,0-1.21-5.982,15.569,15.569,0,0,0-8.182-8.224,15.339,15.339,0,0,0-5.982-1.24l-2.9-.014h-.1a15.306,15.306,0,0,0-15.3,15.315v.289l6.14.025,2.094-5.85.419,5.861,3.171.014,1.056-2.949.212,2.955,20.576.092Z" transform="translate(-299.05 -358.393)" fill="#2f2e41"/>
      <path id="Path_11" data-name="Path 11" d="M370.826,443.016a6.738,6.738,0,0,1,2.59,1.272,6.559,6.559,0,0,1,1.5,1.687,6.844,6.844,0,0,1,.989,4.27,6.555,6.555,0,0,1-.6,2.175,6.666,6.666,0,0,1-9.572,2.808l-.173-.116q-.085-.058-.17-.12t-.165-.124q-.082-.063-.161-.128L331.179,466.8a5.107,5.107,0,0,1-5.856-1.829l-8.037-11.123,9.714-6.54,5.1,5.788,31.009-6.169q.051-.121.105-.24t.116-.238q.058-.116.124-.235t.135-.231a6.661,6.661,0,0,1,7.243-2.965Z" transform="translate(-302.59 -391.791)" fill="#feb8b8"/>
      <path id="Path_12" data-name="Path 12" d="M324.18,443.633c-1.014-1.265-2.428-2.907-3.87-4.536s-2.9-3.244-4-4.452-1.844-2.008-1.844-2.008a7.985,7.985,0,0,0-14.5,5.891,7.87,7.87,0,0,0,1.191,2.919s1.105,1.445,2.775,3.606,3.9,5.034,6.153,7.891,4.526,5.7,6.279,7.8,2.987,3.454,3.161,3.338l6.115-18.179C325.806,445.784,325.194,444.9,324.18,443.633Z" transform="translate(-295.221 -385.982)" fill="#ccc"/>
      <path id="Path_13" data-name="Path 13" d="M322.46,399.209a2.557,2.557,0,0,1-.108,1.4,2.614,2.614,0,0,1-.343.644,2.647,2.647,0,0,1-.424.457,2.594,2.594,0,0,1-1.686.613q-.058,0-.116,0l-.116-.008q-.058,0-.116-.013l-.116-.018-2.179-.4-3-6.413v5.874l-9.909-1.784V374.636l16.611.08-.41.477a11.425,11.425,0,0,0-2.587,5.622,18.625,18.625,0,0,0,.12,6.335,33.59,33.59,0,0,0,1.769,6.187,49.5,49.5,0,0,0,2.362,5.186,2.61,2.61,0,0,1,.249.686Z" transform="translate(-297.132 -363.027)" fill="#2f2e41"/>
    </g>
    <path id="Path_2533" data-name="Path 2533" d="M657.247,805.521H229.878V804.3h428Z" transform="translate(-229.878 -393.379)" fill="#cacaca"/>
    <path id="Path_339" data-name="Path 339" d="M623.63,191.242h-2.255V129.389a35.8,35.8,0,0,0-35.8-35.8H454.531a35.8,35.8,0,0,0-35.8,35.8V468.717a35.8,35.8,0,0,0,35.8,35.8H585.575a35.8,35.8,0,0,0,35.8-35.8V235.27h2.255Z" transform="translate(-309.539 -93.591)" fill="#3f3d56"/>
    <path id="Path_340" data-name="Path 340" d="M619.406,131.554V475.677a27.15,27.15,0,0,1-27.137,27.147H458.53a27.156,27.156,0,0,1-27.159-27.151V131.554a27.155,27.155,0,0,1,27.158-27.146h16.223a12.91,12.91,0,0,0,11.943,17.773h76.244a12.91,12.91,0,0,0,11.943-17.773H592.26a27.15,27.15,0,0,1,27.146,27.137Z" transform="translate(-314.87 -98.154)" fill="#fff"/>
    <path id="Path_45" data-name="Path 45" d="M554.556,305.66a57.414,57.414,0,0,1-57.435-57.387v-.051c0-.12,0-.247.007-.367a57.434,57.434,0,1,1,57.432,57.8h0Zm0-113.664a56.347,56.347,0,0,0-56.219,55.9c-.006.128-.006.231-.006.329A56.233,56.233,0,1,0,554.564,192Z" transform="translate(-342.604 -134.59)" fill="#ccc"/>
    <path id="Path_39" data-name="Path 39" d="M610.876,469.191H492.038a2.2,2.2,0,0,1-2.2-2.2V437.513a2.2,2.2,0,0,1,2.2-2.2H610.876a2.2,2.2,0,0,1,2.2,2.2v29.479a2.2,2.2,0,0,1-2.2,2.2Zm-118.839-33a1.322,1.322,0,0,0-1.321,1.321v29.479a1.322,1.322,0,0,0,1.321,1.321H610.876a1.322,1.322,0,0,0,1.321-1.321V437.513a1.322,1.322,0,0,0-1.321-1.321Z" transform="translate(-339.532 -237.733)" fill="#e6e6e6"/>
    <circle id="Ellipse_5" data-name="Ellipse 5" cx="9.243" cy="9.243" r="9.243" transform="translate(158.667 205.275)" fill="#ccc"/>
    <path id="Path_40" data-name="Path 40" d="M556.083,453.952a1.541,1.541,0,1,0,0,3.081h72.623a1.541,1.541,0,0,0,.118-3.079H556.083Z" transform="translate(-366.825 -245.596)" fill="#e6e6e6"/>
    <path id="Path_41" data-name="Path 41" d="M556.083,469.937a1.541,1.541,0,1,0,0,3.081h72.623a1.541,1.541,0,0,0,.118-3.079H556.083Z" transform="translate(-366.825 -252.339)" fill="#e6e6e6"/>
    <path id="Path_42" data-name="Path 42" d="M610.876,554.45H492.038a2.2,2.2,0,0,1-2.2-2.2V522.772a2.2,2.2,0,0,1,2.2-2.2H610.876a2.2,2.2,0,0,1,2.2,2.2V552.25A2.2,2.2,0,0,1,610.876,554.45Zm-118.839-33a1.322,1.322,0,0,0-1.321,1.321V552.25a1.322,1.322,0,0,0,1.321,1.32H610.876a1.322,1.322,0,0,0,1.321-1.32V522.772a1.322,1.322,0,0,0-1.321-1.321Z" transform="translate(-339.532 -273.697)" fill="#e6e6e6"/>
    <circle id="Ellipse_6" data-name="Ellipse 6" cx="9.243" cy="9.243" r="9.243" transform="translate(158.667 254.571)" fill="#ccc"/>
    <path id="Path_43" data-name="Path 43" d="M556.083,539.208a1.541,1.541,0,0,0,0,3.081h72.623a1.541,1.541,0,1,0,.05-3.081H556.083Z" transform="translate(-366.825 -281.558)" fill="#e6e6e6"/>
    <path id="Path_44" data-name="Path 44" d="M556.083,555.2a1.541,1.541,0,0,0,0,3.081h72.623a1.541,1.541,0,1,0,.05-3.081H556.083Z" transform="translate(-366.825 -288.302)" fill="#e6e6e6"/>
    <path id="Path_39-2" data-name="Path 39-2" d="M610.876,639.708H492.038a2.2,2.2,0,0,1-2.2-2.2V608.03a2.2,2.2,0,0,1,2.2-2.2H610.876a2.2,2.2,0,0,1,2.2,2.2v29.479a2.2,2.2,0,0,1-2.2,2.2Zm-118.839-33a1.322,1.322,0,0,0-1.321,1.321v29.479a1.322,1.322,0,0,0,1.321,1.321H610.876a1.322,1.322,0,0,0,1.321-1.321V608.03a1.322,1.322,0,0,0-1.321-1.321Z" transform="translate(-339.532 -309.66)" fill="#e6e6e6"/>
    <circle id="Ellipse_5-2" data-name="Ellipse 5-2" cx="9.243" cy="9.243" r="9.243" transform="translate(158.667 303.867)" fill="#ccc"/>
    <path id="Path_40-2" data-name="Path 40-2" d="M556.083,624.469a1.541,1.541,0,0,0,0,3.081h72.623a1.541,1.541,0,0,0,.118-3.08H556.083Z" transform="translate(-366.825 -317.522)" fill="#e6e6e6"/>
    <path id="Path_41-2" data-name="Path 41-2" d="M556.083,640.456a1.541,1.541,0,0,0,0,3.081h72.623a1.541,1.541,0,1,0,.118-3.079H556.083Z" transform="translate(-366.825 -324.266)" fill="#e6e6e6"/>
    <path id="Path_2596" data-name="Path 2596" d="M470.99,506.885H492.9c1.37-10.111-1.653-19.551,0-26.291H470.99A29.477,29.477,0,0,0,470.99,506.885Z" transform="translate(-330.277 -256.834)" fill="#ff6584"/>
    <path id="Path_2597" data-name="Path 2597" d="M703.274,594.632h-21.91c.822-10.109,3.469-19.549,0-26.291h21.909A29.478,29.478,0,0,1,703.274,594.632Z" transform="translate(-420.32 -293.847)" fill="#39b2ac"/>
    <path id="Path_2597-2" data-name="Path 2597-2" d="M633.182,682.733h-21.91c.822-10.109,3.469-19.549,0-26.291h21.909A29.476,29.476,0,0,1,633.182,682.733Z" transform="translate(-390.755 -331.009)" fill="#39b2ac"/>
    <path id="Path_2595" data-name="Path 2595" d="M603.946,365.153a54.454,54.454,0,0,1-59.322-1.844,22.359,22.359,0,0,1,20.179-12.76h18.189a22.334,22.334,0,0,1,20.957,14.608Z" transform="translate(-362.642 -201.979)" fill="#39b2ac"/>
    <g id="Group_192" data-name="Group 192" transform="translate(181.979 89.516)">
      <path id="Path_1133" data-name="Path 1133" d="M552,269.342c2.751-8.767,9.007-16.808,17.658-19.774s23.745-.194,27.825,8.033c5.88,11.857,3.238,26.377.12,39.25-1.626-.086-3.267-.154-4.915-.215l-2.328-7.759v7.682c-12.844-.4-26.217-.149-39.6.109C549.571,287.556,549.251,278.109,552,269.342Z" transform="translate(-546.839 -248.413)" fill="#2f2e41"/>
      <circle id="Ellipse_507" data-name="Ellipse 507" cx="19.697" cy="19.697" r="19.697" transform="translate(4.316 9.756)" fill="#feb8b8"/>
      <path id="Path_1145" data-name="Path 1145" d="M555.783,255.823a23.306,23.306,0,0,1,35.433,20.34c-10.372.477-21.267.6-32.315.623l-2.613-6.391-1.539,6.395q-5.049,0-10.118-.013A23.8,23.8,0,0,1,555.783,255.823Z" transform="translate(-544.617 -250.102)" fill="#2f2e41"/>
    </g>
    <path id="Path_2352" data-name="Path 2352" d="M894.112,737.921a61.493,61.493,0,0,1-2.872,17c-.04.128-.082.254-.124.381H880.394c.012-.116.023-.242.034-.381.715-8.218,4.836-58.233-.091-66.786C880.768,688.828,894.941,711.81,894.112,737.921Z" transform="translate(-504.25 -344.377)" fill="#f0f0f0"/>
    <path id="Path_2353" data-name="Path 2353" d="M888.49,747.578c-.187.267-.383.534-.582.8H871.09c.128-.227.275-.494.446-.8,2.779-5.015,11-20.005,18.637-35.551,8.2-16.7,15.73-34.04,15.1-40.315C905.464,673.127,911.139,716.268,888.49,747.578Z" transform="translate(-500.349 -337.45)" fill="#f0f0f0"/>
  </g>
</svg>
